<svg xmlns="http://www.w3.org/2000/svg" version="1.1" xmlns:xlink="http://www.w3.org/1999/xlink" xmlns:svgjs="http://svgjs.dev/svgjs" width="1000" height="750" viewBox="0 0 1000 750"><rect width="1000" height="750" fill="#ffffff"></rect><g transform="matrix(0.834,0,0,0.834,83.04973112183609,78.75351376418143)"><svg viewBox="0 0 347 247" data-background-color="#ed1703" preserveAspectRatio="xMidYMid meet" height="711" width="1000" xmlns="http://www.w3.org/2000/svg" xmlns:xlink="http://www.w3.org/1999/xlink"><g id="tight-bounds" transform="matrix(1,0,0,1,-0.020691485943785892,-0.09997365579206985)"><svg viewBox="0 0 347.0413829718876 247.2" height="247.2" width="347.0413829718876"><g><svg viewBox="0 0 347.0413829718876 247.2" height="247.2" width="347.0413829718876"><g><svg viewBox="0 0 347.0413829718876 247.2" height="247.2" width="347.0413829718876"><g id="textblocktransform"><svg viewBox="0 0 347.0413829718876 247.2" height="247.2" width="347.0413829718876" id="textblock"><g><svg viewBox="0 0 347.0413829718876 247.2" height="247.2" width="347.0413829718876"><path d="M346.229 53.02C344.597 27.36 339.948 20.227 339.948 20.227 325.672-6.202 307.856-0.506 291.85 3.292 263.593 3.446 235.449 9.091 207.256 12.119 148.081 12.581 88.4 4.986 29.519 23.717 23.988 29.464-5.738 24.846 0.984 56.304 2.746 69.39 9.174 83.913 8.978 95.922 9.859 98.026 11.083 93.202 11.605 96.23 13.432 104.39 16.418 100.541 18.865 105.365 15.455 118.246 17.903 128.971 20.236 140.21 16.124 143.135 10.854 141.749 8.489 151.449 8.244 158.479 6.923 157.145 5.47 156.837 4.41 156.632 2.273 157.402 2.632 159.608 3.855 167.152-1.398 171.514 1.897 178.904-0.37 186.91 3.464 193.838 2.942 202.511 2.876 204.255 3.235 205.744 3.806 206.154 6.335 208.361 2.648 212.672 3.039 217.342 28.981 249.262 57.124 227.195 83.702 241.872 90.603 231.608 85.415 245.516 88.172 243.36 90.326 240.846 91.892 251.263 94.323 245.362 94.698 243.668 94.127 239.665 95.465 240.435 96.166 240.846 96.786 240.743 96.884 238.382 97.031 234.841 95.742 237.048 95.4 235.201 99.103 225.861 98.19 248.081 101.665 247.158 101.501 244.438 100.49 240.538 102.562 241.051 104.618 237.151 104.683 233.918 106.51 242.693 106.575 244.592 106.902 245.926 107.424 246.85 113.134 237.305 118.812 250.237 124.8 245.926 128.47 241.205 131.995 248.492 135.714 246.696 137.02 245.259 138.341 242.693 139.597 247.004 154.983 247.928 171.379 244.079 185.965 247.158 224.942 241.41 266.595 249.518 307.692 241.923 317.384 238.998 327.45 234.841 336.897 231.506 336.897 231.506 344.548 222.371 344.548 181.316S346.18 145.393 346.425 112.703C346.669 80.013 347.811 78.679 346.18 53.02Z" opacity="1" fill="#000000" data-fill-palette-color="tertiary"></path><g transform="matrix(1,0,0,1,55.76832,26.230666666666668)"><svg width="235.50474297188757" viewBox="1 -32.5 40.150001525878906 33.20000076293945" height="194.73866666666666" data-palette-color="#ed1703"><path d="M17.85 0.7Q14.15-11.85 11.05-20.75L11.05-20.75 10.5-20.75Q10.4-17.75 10.05-11.3L10.05-11.3 9.75-5.3Q9.75-3.65 11.4-3.65L11.4-3.65Q12.4-3.65 12.9-3.75L12.9-3.75 13.25-3.4 12.7 0.2 10.85 0.15Q8.4 0 6.3 0L6.3 0Q5.25 0 3.43 0.15 1.6 0.3 1 0.4L1 0.4 1.35-3.35Q2.7-3.55 3.33-4.28 3.95-5 4.3-6.85L4.3-6.85Q4.7-10.3 5.45-17.9 6.2-25.5 6.2-26.2L6.2-26.2Q6.2-27.15 5.95-27.6 5.7-28.05 4.98-28.28 4.25-28.5 2.7-28.65L2.7-28.65 2.35-29 2.85-32.45 5.25-32.35Q7.95-32.2 9.55-32.2L9.55-32.2Q11.7-32.2 14.05-32.35L14.05-32.35 15.85-32.4Q17.4-26.45 19.5-19.3L19.5-19.3 21.1-13.55 21.6-13.55Q22.25-15.75 22.4-16.1L22.4-16.1Q22.95-17.95 24.5-22.98 26.05-28 27.3-32.25L27.3-32.25Q28.85-32.25 29.7-32.2L29.7-32.2 32.55-32.15Q33.95-32.15 34.6-32.2L34.6-32.2Q35.8-32.25 39.5-32.5L39.5-32.5 39.8-32.3 39.45-28.75Q37.35-28.6 36.63-28.05 35.9-27.5 35.9-26.1L35.9-26.1Q35.9-24.25 36.27-18.28 36.65-12.3 37.05-8.2L37.05-8.2Q37.3-5.55 37.8-4.63 38.3-3.7 39.45-3.7L39.45-3.7Q40.4-3.7 40.9-3.8L40.9-3.8 41.15-3.45 40.7 0.15Q37.85 0 35.45 0L35.45 0Q34 0 31.2 0.15 28.4 0.3 27.3 0.4L27.3 0.4 27.8-3.4Q29.2-3.55 29.83-4.13 30.45-4.7 30.45-5.85L30.45-5.85 30.25-10.55Q29.9-15.85 29.75-20.75L29.75-20.75 29.25-20.75Q25.75-10.9 22.4 0.25L22.4 0.25 17.85 0.7Z" opacity="1" transform="matrix(1,0,0,1,0,0)" fill="#ffffff" class="wordmark-text-0" data-fill-palette-color="quaternary" id="text-0"></path></svg></g></svg></g></svg></g></svg></g><g></g></svg></g><defs></defs></svg><rect width="347.0413829718876" height="247.2" fill="none" stroke="none" visibility="hidden"></rect></g></svg></g></svg>